<svg width="71" height="81" viewBox="0 0 71 81" fill="none" xmlns="http://www.w3.org/2000/svg">
<path d="M35.0992 80.071C37.7512 80.071 40.2946 79.0175 42.1698 77.1423C44.0451 75.267 45.0986 72.7236 45.0986 70.0716H25.0997C25.0997 72.7236 26.1532 75.267 28.0285 77.1423C29.9037 79.0175 32.4471 80.071 35.0992 80.071ZM40.0739 5.57012C40.1437 4.87493 40.067 4.17283 39.8487 3.5091C39.6305 2.84537 39.2756 2.23475 38.8068 1.71662C38.3381 1.19849 37.766 0.784353 37.1274 0.500919C36.4888 0.217484 35.7978 0.0710449 35.0992 0.0710449C34.4005 0.0710449 33.7095 0.217484 33.0709 0.500919C32.4323 0.784353 31.8602 1.19849 31.3915 1.71662C30.9227 2.23475 30.5678 2.84537 30.3496 3.5091C30.1313 4.17283 30.0546 4.87493 30.1244 5.57012C24.4733 6.71956 19.3931 9.78669 15.744 14.2521C12.095 18.7176 10.1013 24.307 10.1005 30.0738C10.1005 35.5635 7.60066 60.0721 0.101074 65.0719H70.0972C62.5977 60.0721 60.0978 35.5635 60.0978 30.0738C60.0978 17.9744 51.4983 7.87499 40.0739 5.57012Z" fill="#7F3DFF"/>
</svg>
