<svg width="16" height="18" viewBox="0 0 16 18" fill="none" xmlns="http://www.w3.org/2000/svg">
<path d="M11.4991 1.66848C11.6845 1.45654 11.9047 1.28843 12.1469 1.17373C12.3892 1.05903 12.6489 1 12.9112 1C13.1734 1 13.4331 1.05903 13.6754 1.17373C13.9177 1.28843 14.1378 1.45654 14.3233 1.66848C14.5087 1.88041 14.6558 2.13201 14.7562 2.40891C14.8565 2.68582 14.9082 2.9826 14.9082 3.28232C14.9082 3.58204 14.8565 3.87882 14.7562 4.15573C14.6558 4.43263 14.5087 4.68423 14.3233 4.89617L4.79152 15.7896L0.908203 17L1.96729 12.5619L11.4991 1.66848Z" stroke="white" stroke-width="1.32968" stroke-linecap="round" stroke-linejoin="round"/>
</svg>
