<svg width="53" height="51" viewBox="0 0 53 51" fill="none" xmlns="http://www.w3.org/2000/svg">
<path d="M21.8101 27.9216C22.8479 29.2536 24.172 30.3557 25.6926 31.1533C27.2131 31.9508 28.8945 32.425 30.6228 32.5439C32.3511 32.6627 34.0857 32.4233 35.7091 31.8419C37.3326 31.2606 38.8068 30.3508 40.0317 29.1744L47.2817 22.2144C49.4828 20.0267 50.7007 17.0965 50.6732 14.055C50.6457 11.0135 49.3749 8.10408 47.1345 5.95335C44.8942 3.80261 41.8635 2.58265 38.6953 2.55622C35.5271 2.52979 32.4748 3.69901 30.1959 5.81204L26.0392 9.77924" stroke="white" stroke-width="4" stroke-linecap="round" stroke-linejoin="round"/>
<path d="M31.4766 23.2826C30.4388 21.9506 29.1147 20.8485 27.5941 20.0509C26.0736 19.2534 24.3922 18.7792 22.6639 18.6603C20.9356 18.5415 19.201 18.7809 17.5776 19.3623C15.9541 19.9436 14.4799 20.8534 13.255 22.0298L6.00497 28.9898C3.8039 31.1775 2.58596 34.1077 2.61349 37.1492C2.64102 40.1907 3.91182 43.1001 6.15216 45.2509C8.39251 47.4016 11.4232 48.6215 14.5914 48.648C17.7596 48.6744 20.8119 47.5052 23.0908 45.3922L27.2233 41.425" stroke="white" stroke-width="4" stroke-linecap="round" stroke-linejoin="round"/>
</svg>
