<svg width="21" height="4" viewBox="0 0 21 4" fill="none" xmlns="http://www.w3.org/2000/svg">
<path d="M16.4638 2C16.4638 2.53043 16.6979 3.03914 17.1146 3.41421C17.5314 3.78929 18.0966 4 18.686 4C19.2754 4 19.8406 3.78929 20.2573 3.41421C20.6741 3.03914 20.9082 2.53043 20.9082 2C20.9082 1.46957 20.6741 0.96086 20.2573 0.585787C19.8406 0.210714 19.2754 -6.72142e-08 18.686 -9.14748e-08C18.0966 -1.15735e-07 17.5314 0.210714 17.1146 0.585787C16.6979 0.960859 16.4638 1.46957 16.4638 2ZM10.9082 4C10.3188 4 9.7536 3.78929 9.33685 3.41421C8.92011 3.03914 8.68598 2.53043 8.68598 2C8.68598 1.46957 8.92011 0.960859 9.33685 0.585786C9.7536 0.210713 10.3188 -4.35897e-07 10.9082 -4.11636e-07C11.4976 -3.87376e-07 12.0628 0.210714 12.4796 0.585786C12.8963 0.960859 13.1304 1.46957 13.1304 2C13.1304 2.53043 12.8963 3.03914 12.4796 3.41421C12.0628 3.78929 11.4976 4 10.9082 4ZM0.908203 2C0.908203 2.53043 1.14233 3.03914 1.55908 3.41421C1.97582 3.78929 2.54106 4 3.13042 4C3.7198 4 4.28503 3.78929 4.70177 3.41421C5.11852 3.03914 5.35265 2.53043 5.35265 2C5.35265 1.46957 5.11852 0.960859 4.70177 0.585786C4.28503 0.210713 3.7198 -7.07538e-07 3.13042 -7.31798e-07C2.54106 -7.56059e-07 1.97582 0.210713 1.55908 0.585786C1.14233 0.960859 0.908203 1.46957 0.908203 2Z" fill="#6E64F2"/>
</svg>
