<svg width="77" height="77" viewBox="0 0 77 77" fill="none" xmlns="http://www.w3.org/2000/svg">
<path d="M74.0293 35.8585C74.0293 55.6037 58.0227 71.6104 38.2775 71.6104C18.5323 71.6104 2.52563 55.6037 2.52563 35.8585C2.52563 16.1133 18.5323 0.106689 38.2775 0.106689C58.0227 0.106689 74.0293 16.1133 74.0293 35.8585Z" fill="#7F3DFF"/>
<path d="M76.458 38.2865C76.458 59.373 59.3641 76.4669 38.2776 76.4669C17.1911 76.4669 0.097168 59.373 0.097168 38.2865C0.097168 17.2 17.1911 0.106079 38.2776 0.106079C59.3641 0.106079 76.458 17.2 76.458 38.2865Z" fill="#7F3DFF"/>
<path fill-rule="evenodd" clip-rule="evenodd" d="M9.42114 58.4036C9.46532 58.2788 9.51088 58.1635 9.55783 58.0579C10.2942 56.9816 11.852 55.9478 14.2311 54.9565C14.4577 54.8432 16.3199 54.2201 19.8178 53.0872C23.3157 51.9543 25.1071 51.3737 25.1921 51.3453C27.1464 50.6373 28.428 50.0921 29.0369 49.7097C29.6459 49.3273 30.1061 48.7963 30.4177 48.1165L31.3948 46.0773C31.5364 45.3692 31.3665 44.7886 30.885 44.3354C27.1181 40.9367 25.2487 36.3342 25.2771 30.528C25.2771 25.8547 26.4242 22.0169 28.7183 19.0147C31.0125 16.0125 34.1988 14.5114 38.2773 14.5114C42.3558 14.5114 45.5421 16.0125 47.8363 19.0147C50.1305 22.0169 51.2775 25.8547 51.2775 30.528C51.3059 36.3342 49.4365 40.9367 45.6696 44.3354C45.1881 44.7886 45.0182 45.3692 45.1598 46.0773L46.1369 48.1165C46.4485 48.7963 46.9087 49.3273 47.5177 49.7097C48.1266 50.0921 49.4082 50.6373 51.3625 51.3453C51.4475 51.3737 53.2389 51.9543 56.7368 53.0872C60.2347 54.2201 62.0969 54.8432 62.3235 54.9565C64.7026 55.9478 66.2604 56.9816 66.9968 58.0579C67.0437 58.1636 67.0893 58.2788 67.1335 58.4037C60.6282 66.4111 50.1259 71.6104 38.2774 71.6104C26.4288 71.6104 15.9264 66.411 9.42114 58.4036Z" fill="white"/>
</svg>
