<svg width="10" height="9" viewBox="0 0 10 9" fill="none" xmlns="http://www.w3.org/2000/svg">
<path d="M4.46044 0.94208C4.63904 0.580254 5.15499 0.580253 5.3336 0.942079L6.28827 2.87615C6.35913 3.0197 6.49603 3.11925 6.65444 3.1424L8.79013 3.45456C9.18932 3.51291 9.34842 4.0036 9.05942 4.28509L7.51481 5.78954C7.39997 5.90139 7.34755 6.06261 7.37465 6.22061L7.73908 8.34542C7.8073 8.74317 7.38979 9.04647 7.03261 8.85863L5.12363 7.85472C4.98176 7.78012 4.81227 7.78012 4.6704 7.85472L2.76143 8.85863C2.40425 9.04647 1.98673 8.74317 2.05495 8.34542L2.41938 6.22061C2.44648 6.06261 2.39406 5.90139 2.27922 5.78954L0.734613 4.28509C0.44561 4.0036 0.60471 3.51291 1.0039 3.45456L3.1396 3.1424C3.298 3.11925 3.4349 3.0197 3.50576 2.87615L4.46044 0.94208Z" fill="#FFB800"/>
</svg>
