<svg width="19" height="20" viewBox="0 0 19 20" fill="none" xmlns="http://www.w3.org/2000/svg">
<path d="M6.75971 11.2362L12.7053 14.7758M12.6966 5.01089L6.75971 8.55044M17.5628 3.668C17.5628 5.1415 16.3935 6.336 14.9512 6.336C13.5089 6.336 12.3397 5.1415 12.3397 3.668C12.3397 2.1945 13.5089 1 14.9512 1C16.3935 1 17.5628 2.1945 17.5628 3.668ZM7.11662 9.89333C7.11662 11.3668 5.9474 12.5613 4.50509 12.5613C3.06278 12.5613 1.89355 11.3668 1.89355 9.89333C1.89355 8.41984 3.06278 7.22533 4.50509 7.22533C5.9474 7.22533 7.11662 8.41984 7.11662 9.89333ZM17.5628 16.1187C17.5628 17.5922 16.3935 18.7867 14.9512 18.7867C13.5089 18.7867 12.3397 17.5922 12.3397 16.1187C12.3397 14.6452 13.5089 13.4507 14.9512 13.4507C16.3935 13.4507 17.5628 14.6452 17.5628 16.1187Z" stroke="#3949DD" stroke-width="2" stroke-linecap="round" stroke-linejoin="round"/>
</svg>
