<svg width="16" height="18" viewBox="0 0 16 18" fill="none" xmlns="http://www.w3.org/2000/svg">
<path d="M5.35974 10.1027L10.672 13.2867M10.6642 4.50265L5.35974 7.68665M15.012 3.29465C15.012 4.62014 13.9673 5.69465 12.6786 5.69465C11.39 5.69465 10.3453 4.62014 10.3453 3.29465C10.3453 1.96917 11.39 0.894653 12.6786 0.894653C13.9673 0.894653 15.012 1.96917 15.012 3.29465ZM5.67863 8.89465C5.67863 10.2201 4.63396 11.2947 3.3453 11.2947C2.05663 11.2947 1.01196 10.2201 1.01196 8.89465C1.01196 7.56917 2.05663 6.49465 3.3453 6.49465C4.63396 6.49465 5.67863 7.56917 5.67863 8.89465ZM15.012 14.4947C15.012 15.8201 13.9673 16.8947 12.6786 16.8947C11.39 16.8947 10.3453 15.8201 10.3453 14.4947C10.3453 13.1692 11.39 12.0947 12.6786 12.0947C13.9673 12.0947 15.012 13.1692 15.012 14.4947Z" stroke="white" stroke-width="1.38719" stroke-linecap="round" stroke-linejoin="round"/>
</svg>
