<svg width="80" height="81" viewBox="0 0 80 81" fill="none" xmlns="http://www.w3.org/2000/svg">
<path d="M50.2961 51.717C50.2961 51.717 82.3848 28.5608 78.8254 2.05889C78.7901 1.60886 78.6117 1.18193 78.3163 0.840623C77.9882 0.536421 77.5668 0.352176 77.1207 0.317858C51.2234 -3.32331 28.5991 29.5109 28.5991 29.5109C8.97041 27.1607 10.3978 31.0746 1.4426 52.5852C-0.271163 56.6855 2.50631 58.0993 5.55198 56.9446L15.3163 53.258L27.0899 65.2952L23.4851 75.2914C22.3577 78.4098 23.7351 81.2509 27.749 79.5008C48.7687 70.3365 52.5963 71.8003 50.2961 51.717ZM54.8828 24.8242C53.575 23.4727 52.8438 21.6658 52.8438 19.7852C52.8438 17.9045 53.575 16.0976 54.8828 14.7462C55.5222 14.0872 56.2874 13.5632 57.1331 13.2055C57.9788 12.8477 58.8876 12.6633 59.8059 12.6633C60.7241 12.6633 61.633 12.8477 62.4786 13.2055C63.3243 13.5632 64.0895 14.0872 64.7289 14.7462C66.0368 16.0976 66.7679 17.9045 66.7679 19.7852C66.7679 21.6658 66.0368 23.4727 64.7289 24.8242C64.0895 25.4832 63.3243 26.0071 62.4786 26.3649C61.633 26.7227 60.7241 26.907 59.8059 26.907C58.8876 26.907 57.9788 26.7227 57.1331 26.3649C56.2874 26.0071 55.5222 25.4832 54.8828 24.8242Z" fill="#7F3DFF"/>
</svg>
