<svg width="81" height="52" viewBox="0 0 81 52" fill="none" xmlns="http://www.w3.org/2000/svg">
<path d="M61.352 14.556C60.248 14.556 59.168 14.656 58.116 14.828C55.492 6.248 47.364 0 37.736 0C25.98 0 16.456 9.312 16.456 20.796C16.456 21.82 16.536 22.828 16.684 23.82C16.1147 23.7495 15.5417 23.7135 14.968 23.712C6.976 23.712 0.5 30.04 0.5 37.852C0.5 45.664 6.976 52 14.968 52H32.5V36H22.5L40.5 16L58.5 36H48.5V52H61.352C71.924 52 80.5 43.616 80.5 33.28C80.5 22.936 71.924 14.556 61.352 14.556Z" fill="#3949DD"/>
</svg>
